<svg width="222" height="125" viewBox="0 0 222 125" fill="none" xmlns="http://www.w3.org/2000/svg">
<path d="M215.789 30.7244C204.728 29.003 193.476 32.051 183.038 35.6051C182.969 35.6268 182.896 35.6356 182.824 35.6307C182.751 35.6258 182.68 35.6074 182.616 35.5767C182.552 35.5459 182.495 35.5036 182.45 35.4522C182.404 35.4008 182.371 35.3415 182.353 35.2781C182.3 35.0907 182.315 34.893 182.397 34.7141C182.478 34.5352 182.621 34.3846 182.805 34.2847C190.548 30.0324 199.169 27.2425 208.146 26.0844C163.279 13.9106 102.241 10.5047 71.3593 48.2972C84.8448 50.2038 98.707 54.1527 108.528 63.1982C114.413 68.2764 118.445 74.846 120.089 82.0358C124.199 99.5715 109.891 117.644 90.0021 117.675C53.9082 117.73 41.5459 77.4267 58.0724 50.2284C38.9776 48.3095 19.5677 48.6674 0.445554 50.358C0.342206 50.3685 0.238406 50.3421 0.156448 50.2844C0.0744904 50.2267 0.0209104 50.1424 0.00722115 50.0495C-0.00541504 49.9742 -0.00143781 49.8973 0.0189206 49.8233C0.0392791 49.7493 0.07562 49.6797 0.12587 49.6184C0.176119 49.5571 0.239292 49.5053 0.311773 49.466C0.384254 49.4267 0.464623 49.4006 0.548287 49.3893C20.1773 46.7423 40.094 45.6502 59.9284 47.0446C89.0364 2.04536 159.423 2.85982 205.639 22.734C198.544 19.6798 194.729 9.30152 194.866 3.85323C194.854 3.67714 194.92 3.50392 195.047 3.37032C195.175 3.23672 195.356 3.1532 195.551 3.13747C195.73 3.13567 195.906 3.17781 196.06 3.25934C196.215 3.34086 196.342 3.45869 196.427 3.60023C201.708 12.2879 208.79 18.6864 218.741 25.4366C222.823 28.207 224.289 32.0449 215.789 30.7244ZM63.9967 61.0263C54.3192 81.6286 67.1883 112.492 91.1664 110.801C105.063 109.826 115.48 98.5781 114.288 86.065C113.581 78.795 110.095 71.9714 104.426 66.7584C95.2415 57.8918 81.8587 53.9367 68.8868 51.697C66.9307 54.6593 65.2932 57.7833 63.9967 61.0263Z" fill="#6E5D41"/>
<path d="M68.7225 123.364C66.3625 122.071 63.8804 120.968 61.3051 120.069C61.1924 120.03 61.0686 120.025 60.9527 120.056C60.8368 120.086 60.7355 120.151 60.6644 120.239C60.5933 120.327 60.5565 120.433 60.5597 120.542C60.5628 120.651 60.6057 120.756 60.6818 120.84C61.6491 121.856 62.8347 122.685 64.1672 123.277C65.4997 123.868 66.9514 124.211 68.4348 124.283C68.556 124.285 68.6745 124.251 68.7719 124.186C68.8692 124.121 68.9398 124.029 68.9727 123.924C69.0056 123.818 68.9989 123.707 68.9536 123.605C68.9083 123.504 68.827 123.419 68.7225 123.364Z" fill="#6E5D41"/>
<path d="M55.2986 116.077C46.395 106.766 39.8063 94.7835 38.7995 81.3756C38.7995 81.098 38.3406 81.1226 38.2653 81.3756C34.5258 94.5675 42.9842 109.759 54.9561 116.422C55.0084 116.445 55.0677 116.452 55.1248 116.442C55.1819 116.432 55.2338 116.405 55.2725 116.366C55.3113 116.327 55.3348 116.278 55.3395 116.226C55.3442 116.173 55.3298 116.121 55.2986 116.077Z" fill="#6E5D41"/>
<path d="M143.43 1.59492C149.397 1.10592 155.413 1.50197 161.238 2.76727C161.278 2.77229 161.32 2.76455 161.355 2.74535C161.39 2.72616 161.416 2.69669 161.43 2.6619C161.443 2.62711 161.443 2.58913 161.43 2.55438C161.416 2.51963 161.389 2.49019 161.354 2.47108C156.074 -0.391897 149.067 -0.737423 143.341 1.28023C143.304 1.29748 143.275 1.32561 143.257 1.36C143.24 1.39438 143.237 1.43297 143.247 1.46951C143.257 1.50605 143.281 1.53836 143.314 1.56114C143.348 1.58391 143.389 1.59582 143.43 1.59492Z" fill="#6E5D41"/>
</svg>
