<svg width="397" height="391" viewBox="0 0 397 391" fill="none" xmlns="http://www.w3.org/2000/svg">
<g clip-path="url(#clip0_14_42)">
<path d="M299.577 162.123C299.577 145.891 287.803 132.32 272.224 129.251C275.568 124.064 277.514 117.922 277.514 111.337C277.514 96.4602 267.622 83.8235 253.978 79.4524C256.876 74.8056 258.55 69.3439 258.55 63.5025V59.6137C258.55 26.7422 231.397 0 198.022 0H185.757C181.197 0 177.5 3.64082 177.5 8.13228C177.5 12.6237 181.197 16.2646 185.757 16.2646H191.998C198.323 16.2646 203.47 21.3326 203.47 27.5627C203.47 33.7921 198.324 38.8609 191.998 38.8609H166.436C151.005 38.8609 138.45 51.226 138.45 66.4236C138.45 71.2754 139.734 75.8359 141.979 79.8004C128.876 84.4692 119.486 96.8416 119.486 111.337C119.486 117.922 121.432 124.065 124.776 129.251C109.198 132.32 97.4227 145.891 97.4227 162.123C97.4227 171.832 101.639 180.585 108.357 186.714C108.33 186.978 108.315 187.247 108.315 187.517V248.778C108.315 269.127 123.963 285.937 144.03 288.169V382.868C144.03 387.359 147.727 391 152.287 391H244.713C249.273 391 252.97 387.359 252.97 382.868V288.17C273.037 285.938 288.685 269.128 288.685 248.779V187.518C288.685 187.247 288.67 186.979 288.643 186.715C295.361 180.585 299.577 171.832 299.577 162.123ZM166.435 55.1255H191.997C207.428 55.1255 219.983 42.7611 219.983 27.5627C219.983 25.5516 219.763 23.5893 219.347 21.7002C232.868 29.1062 242.036 43.3247 242.036 59.6137V63.5025C242.036 71.3892 235.525 77.8056 227.519 77.8105L166.435 77.7218C160.11 77.7218 154.964 72.6538 154.964 66.4236C154.964 60.1935 160.11 55.1255 166.435 55.1255ZM153.526 94.075H227.496H227.509H243.474C253.138 94.075 261 101.819 261 111.337C261 120.855 253.139 128.598 243.474 128.598H153.526C143.862 128.598 136 120.855 136 111.337C136.001 101.819 143.862 94.075 153.526 94.075ZM131.462 144.862H153.526H243.474H265.537C275.202 144.862 283.064 152.605 283.064 162.123C283.064 171.641 275.202 179.385 265.537 179.385H131.462C121.798 179.385 113.936 171.641 113.936 162.123C113.937 152.605 121.798 144.862 131.462 144.862ZM272.17 195.65V248.778C272.17 261.673 261.519 272.165 248.425 272.165C247.786 272.165 247.166 272.243 246.568 272.378C245.972 272.243 245.351 272.165 244.712 272.165C240.153 272.165 236.455 275.805 236.455 280.297V374.735H160.543V288.429H210.909H210.91C215.469 288.429 219.167 284.788 219.167 280.297C219.167 275.805 215.469 272.165 210.91 272.165H210.909H152.286H148.574C135.481 272.165 124.829 261.673 124.829 248.778V228.306H249.703C254.262 228.306 257.96 224.665 257.96 220.173C257.96 215.682 254.262 212.041 249.703 212.041H124.83V195.65H131.462H265.537H272.17Z" fill="#8A3E2A" fill-opacity="0.5" stroke="" stroke-opacity="0.5" stroke-width="1.66389"/> <!-- 1.66389 -->
</g>
<defs>
<clipPath id="clip0_14_42">
<rect width="397" height="391" fill="white"/>
</clipPath>
</defs>
</svg>
