<svg width="205" height="361" viewBox="0 0 205 361" fill="none" xmlns="http://www.w3.org/2000/svg">
<g filter="url(#filter0_b_14_41)">
<path fill-rule="evenodd" clip-rule="evenodd" d="M91.6996 0.255946C68.0464 3.26451 48.3775 12.5032 31.8963 28.347C23.025 36.8749 16.8683 44.9685 11.7649 54.8114C4.83119 68.186 1.11543 81.5952 0.275685 96.2784C-0.146657 103.654 -0.110696 103.914 1.61322 105.918C3.03395 107.57 3.92094 107.962 6.09893 107.9C10.5867 107.773 11.7128 105.779 12.2493 97.0082C13.644 74.2179 22.4328 54.7994 38.7278 38.5036C52.075 25.1565 66.46 17.4281 85.3539 13.4543C93.6273 11.7135 110.924 11.7135 119.198 13.4543C138.369 17.4866 153.818 25.9532 167.148 39.7326C176.954 49.8695 183.59 60.8623 187.966 74.2222C192.31 87.484 192.526 90.7993 192.526 144.303V192.366L190.795 194.096C188.665 196.227 184.931 196.401 182.557 194.48L180.892 193.134L180.539 170.684L180.187 148.234L178.318 144.709C175.95 140.241 172.071 136.367 167.919 134.321C163.276 132.033 154.079 132.038 149.426 134.33C141.774 138.1 137.705 144.566 136.937 154.179C136.613 158.234 136.013 160.983 135.171 162.269C133.683 164.54 130.109 166.214 126.749 166.214C117.491 166.214 108.029 175.593 107.818 184.98C107.719 189.375 108.657 191.226 111.487 192.212C115.112 193.476 118.226 191.745 119.158 187.948C120.556 182.252 120.977 181.418 123.212 179.912C124.476 179.06 127.105 178.236 129.276 178.012C140.93 176.81 148.811 168.148 148.811 156.544C148.811 152.085 150.028 148.896 152.655 146.472C154.238 145.011 155.27 144.709 158.682 144.709C162.101 144.709 163.118 145.008 164.683 146.472C168.158 149.723 168.182 149.887 168.553 173.264C168.887 194.316 168.985 195.622 170.427 198.295C173.699 204.358 179.504 207.772 186.583 207.798C194.456 207.826 201.86 202.355 203.825 195.054C204.35 193.106 204.506 176.048 204.327 140.264C204.074 89.8136 204.021 88.1038 202.52 81.464C197.806 60.6297 189.327 45.2371 174.218 30.0857C159.16 14.9871 143.127 6.19059 122.863 1.91076C116.174 0.497788 97.5652 -0.490732 91.6996 0.255946ZM57.8876 128.91C50.0006 130.456 43.1649 135.94 39.6691 143.528C37.9304 147.301 37.8035 148.334 37.4411 161.687L37.0561 175.846L35.017 178.517C30.8183 184.018 23.4001 185.251 17.598 181.412C12.5165 178.048 12.059 176.082 12.0413 157.522L12.0258 141.427L9.96487 139.366C7.28346 136.685 4.77549 136.691 2.08068 139.386L0 141.467L0.196012 199.847L0.392023 258.226L2.64898 262.992C5.31488 268.619 10.6587 274.533 15.4201 277.124C21.2158 280.278 26.0583 281.141 37.9635 281.141H48.7985L50.8594 279.081C53.3793 276.561 53.495 274.133 51.2211 271.486L49.5212 269.508L37.2958 269.136C23.7259 268.723 21.6692 268.136 17.2166 263.4C12.2091 258.074 12.4002 259.56 12.1753 224.234L11.9715 192.357L15.3481 193.908C20.4825 196.269 29.3171 196.127 34.7117 193.599C40.0632 191.09 44.7097 186.67 47.0893 181.826C48.9747 177.985 49.0551 177.36 49.4147 163.746C49.8102 148.728 50.1515 147.163 53.7347 143.916C56.2913 141.599 58.2966 140.785 61.6111 140.718C65.4743 140.641 67.4978 141.264 70.3717 143.417C75.3087 147.116 75.0915 145.069 75.4828 191.597C75.8347 233.48 75.8382 233.554 77.4401 236.806C79.4708 240.927 83.9417 245.378 88.1136 247.433C92.6388 249.662 101.883 249.714 106.611 247.538C113.538 244.35 119.034 236.385 119.289 229.163C119.502 223.163 116.022 220.039 111.177 221.881C109.199 222.633 107.211 226.206 107.211 229.011C107.211 231.39 105.095 234.348 102.243 235.95C97.7605 238.469 93.4052 237.647 89.5844 233.56L87.8217 231.674L87.4692 189.954L87.1166 148.234L85.4153 144.009C81.1608 133.44 68.9496 126.743 57.8876 128.91ZM197.006 230.167C196.174 230.325 194.905 231.103 194.186 231.897C193.064 233.133 192.825 234.955 192.505 244.725C192.204 253.882 191.879 256.594 190.839 258.579C189.047 262.004 185.643 265.472 182.302 267.278C179.492 268.797 179.289 268.803 126.473 268.996L73.4642 269.19L71.6528 271.342L69.8422 273.493V302.314C69.8422 332.879 70.0834 335.746 73.2188 342.483C75.5519 347.498 83.054 355.031 88.1742 357.501C100.848 363.614 115.841 360.851 125.391 350.642C133.444 342.033 134.913 336.522 134.583 316.156C134.361 302.433 134.325 302.141 132.692 300.82C130.403 298.968 126.158 299.038 124.419 300.955C123.21 302.289 123.039 303.992 122.704 318.053C122.343 333.267 122.285 333.763 120.446 337.282C116.87 344.129 109.473 348.829 102.276 348.829C95.0854 348.829 87.7068 344.144 84.0869 337.282L82.1811 333.67L81.9653 307.406L81.7496 281.141H129.586C181.639 281.141 181.766 281.133 189.132 277.124C193.894 274.532 199.237 268.618 201.901 262.992C204.121 258.302 204.16 258.036 204.401 246.182C204.643 234.368 204.616 234.102 202.993 232.313C201.217 230.355 199.417 229.71 197.006 230.167Z" fill="#8A3E2A" fill-opacity="0.5"/>
</g>
<defs>
<filter id="filter0_b_14_41" x="-4" y="-4" width="212.512" height="368.72" filterUnits="userSpaceOnUse" color-interpolation-filters="sRGB">
<feFlood flood-opacity="0" result="BackgroundImageFix"/>
<feGaussianBlur in="BackgroundImageFix" stdDeviation="2"/>
<feComposite in2="SourceAlpha" operator="in" result="effect1_backgroundBlur_14_41"/>
<feBlend mode="normal" in="SourceGraphic" in2="effect1_backgroundBlur_14_41" result="shape"/>
</filter>
</defs>
</svg>
