<svg width="25" height="24" viewBox="0 0 25 24" fill="none" xmlns="http://www.w3.org/2000/svg">
<path d="M24.9827 6.58224C24.0165 7.30845 22.9967 7.81259 21.8755 8.10667C21.7264 8.14868 21.5654 8.1847 21.4342 8.26272C20.8199 8.61682 20.1937 8.96492 19.6032 9.36103C19.1619 9.65512 18.7027 9.81717 18.1838 9.89519C17.0686 10.0572 16.0011 10.3873 15.0767 11.0835C14.9514 11.1796 14.8083 11.2576 14.6592 11.3056C13.6394 11.6297 12.6195 11.9418 11.5997 12.2539C11.3731 12.3199 11.1226 12.3259 10.9079 12.4219C10.4189 12.638 9.91194 12.686 9.39308 12.62C8.90405 12.56 8.43886 12.566 8.1347 13.0161C7.88421 12.794 7.72915 12.554 7.53831 12.5239C7.3415 12.4879 7.1089 12.638 6.90016 12.74C6.72125 12.824 6.57812 12.9981 6.3992 13.0461C6.17854 13.1061 5.9042 13.1481 5.71336 13.0581C5.53444 12.9741 5.43901 12.71 5.31973 12.5359C5.90419 11.8998 6.67355 11.7197 7.36536 11.4136C7.66952 11.2816 8.06313 11.2816 8.40307 11.3236C8.83247 11.3776 9.16645 11.2696 9.50639 11.0235C9.79266 10.8195 10.1147 10.5974 10.4427 10.5434C11.0451 10.4413 11.5699 10.1893 12.1126 9.94921C12.5062 9.77516 12.9237 9.63711 13.3412 9.54709C14.1105 9.37904 14.7665 8.8869 15.5657 8.79687C15.7864 8.77286 16.013 8.62882 16.1978 8.48478C17.0924 7.81259 18.0765 7.33845 19.1679 7.07438C19.5496 6.98435 19.9014 6.78029 20.2652 6.62425C21.2433 6.20413 22.2273 5.77801 23.2054 5.35189C23.5155 5.21385 23.8078 5.19584 24.0941 5.4299C24.2133 5.52593 24.3684 5.57995 24.5175 5.63396C24.9349 5.79001 25.0483 6.0901 24.9827 6.58224Z" fill="black"/>
<path d="M12.1484 1.56481C12.2379 1.78087 12.3273 2.00294 12.4168 2.213C12.0947 2.69914 11.8025 3.15527 11.5043 3.61141C10.7231 3.91749 10.5143 4.76973 9.94179 5.27988C9.61974 5.56796 9.36331 5.93407 9.06511 6.25217C8.71324 6.62427 8.35541 6.97237 7.90216 7.25445C7.45487 7.53653 6.99565 7.90263 6.76902 8.43679C6.7392 8.50881 6.69743 8.58083 6.65568 8.64685C6.27399 9.19901 5.90425 9.24702 5.36154 8.8149C5.3019 8.76689 5.22437 8.72488 5.18262 8.65886C4.94407 8.34677 4.70551 8.02867 4.43117 7.65656C4.92617 6.85833 5.42714 6.07811 6.19648 5.47794C6.94197 4.88977 7.62782 4.22358 8.34945 3.5934C8.61782 3.35933 8.89214 3.11927 9.1963 2.93922C9.48853 2.76517 9.76883 2.5791 10.1803 2.62711C10.4905 2.66312 10.8364 2.43507 11.1823 2.32103C11.063 2.14098 10.9795 2.02095 10.8722 1.8529C11.2479 1.45078 11.5997 1.03067 11.9993 0.65856C12.226 0.442497 12.5063 0.274444 12.7806 0.112397C13.0669 -0.0556517 13.371 -0.031642 13.3949 0.160414C13.4187 0.334463 13.3889 0.574527 13.2875 0.694561C13.0549 0.958637 12.7627 1.1687 12.4884 1.39077C12.3989 1.46279 12.2796 1.5108 12.1782 1.57082C12.1902 1.5048 12.2021 1.44479 12.214 1.37877C12.1723 1.43878 12.1603 1.49879 12.1484 1.56481Z" fill="black"/>
<path d="M8.58307e-06 19.0478C0.435371 19.3119 0.876698 19.576 1.31206 19.84C1.41345 19.9001 1.52675 19.9901 1.6341 19.9781C2.25435 19.9361 2.78513 20.3382 3.35766 20.3562C4.36555 20.3862 5.28994 20.7523 6.26802 20.8843C7.01946 20.9864 7.75899 21.0344 8.51044 21.0464C9.17243 21.0584 9.82846 21.0044 10.4785 21.3405C10.902 21.5625 11.4745 21.4845 11.9814 21.5625C12.3691 21.6226 12.7567 21.7066 13.1146 21.7726C13.4068 22.4208 13.6751 23.021 13.9316 23.6031C13.5976 23.9092 13.2875 23.7892 12.9774 23.7472C11.9277 23.5971 10.8721 23.4531 9.82249 23.303C9.39309 23.243 8.96369 23.159 8.54026 23.081C7.9558 22.9729 7.37135 22.8769 6.79286 22.7509C6.17261 22.6188 5.55832 22.5048 4.99175 22.1747C4.62199 21.9587 4.18663 21.8446 3.76916 21.7126C2.65988 21.3645 1.66393 20.7823 0.685854 20.1761C0.453263 20.0321 0.226619 19.846 0.071558 19.63C-0.0238638 19.4979 0.0238409 19.2639 0.00594902 19.0718L8.58307e-06 19.0478Z" fill="black"/>
<path d="M12.1484 1.56476C12.1603 1.50475 12.1782 1.44474 12.1902 1.37872C12.1782 1.44474 12.1663 1.50475 12.1544 1.57077L12.1484 1.56476Z" fill="white"/>
</svg>
