<svg width="25" height="24" viewBox="0 0 25 24" fill="none" xmlns="http://www.w3.org/2000/svg">
<path d="M0.0173336 17.2236C0.983483 16.4974 2.00331 15.9933 3.12452 15.6992C3.27362 15.6572 3.43464 15.6211 3.56584 15.5431C4.18012 15.189 4.80634 14.8409 5.39677 14.4448C5.83809 14.1507 6.2973 13.9887 6.81616 13.9107C7.93141 13.7486 8.99895 13.4185 9.92335 12.7223C10.0486 12.6263 10.1917 12.5483 10.3408 12.5003C11.3606 12.1762 12.3805 11.8641 13.4003 11.552C13.6269 11.486 13.8774 11.48 14.0921 11.3839C14.5811 11.1679 15.0881 11.1199 15.6069 11.1859C16.096 11.2459 16.5611 11.2399 16.8653 10.7898C17.1158 11.0118 17.2708 11.2519 17.4617 11.2819C17.6585 11.3179 17.8911 11.1679 18.0998 11.0658C18.2788 10.9818 18.4219 10.8078 18.6008 10.7598C18.8215 10.6997 19.0958 10.6577 19.2866 10.7478C19.4656 10.8318 19.561 11.0958 19.6803 11.2699C19.0958 11.9061 18.3264 12.0861 17.6346 12.3922C17.3305 12.5243 16.9369 12.5243 16.5969 12.4822C16.1675 12.4282 15.8336 12.5363 15.4936 12.7823C15.2073 12.9864 14.8853 13.2085 14.5573 13.2625C13.9549 13.3645 13.4301 13.6166 12.8874 13.8566C12.4938 14.0307 12.0763 14.1687 11.6588 14.2588C10.8895 14.4268 10.2335 14.919 9.4343 15.009C9.21363 15.033 8.98703 15.177 8.80215 15.3211C7.90757 15.9933 6.92351 16.4674 5.83212 16.7315C5.45043 16.8215 5.09857 17.0256 4.73477 17.1816C3.75669 17.6017 2.77266 18.0278 1.79459 18.454C1.48447 18.592 1.19221 18.61 0.905946 18.3759C0.786669 18.2799 0.631631 18.2259 0.482534 18.1719C0.0650621 18.0158 -0.0482691 17.7157 0.0173336 17.2236Z" fill="black"/>
<path d="M12.8516 22.241C12.7621 22.025 12.6727 21.8029 12.5832 21.5928C12.9053 21.1067 13.1975 20.6506 13.4957 20.1944C14.2769 19.8884 14.4857 19.0361 15.0582 18.526C15.3803 18.2379 15.6367 17.8718 15.9349 17.5537C16.2868 17.1816 16.6446 16.8335 17.0978 16.5514C17.5451 16.2693 18.0044 15.9032 18.231 15.3691C18.2608 15.297 18.3026 15.225 18.3443 15.159C18.726 14.6068 19.0957 14.5588 19.6385 14.9909C19.6981 15.039 19.7756 15.081 19.8174 15.147C20.0559 15.4591 20.2945 15.7772 20.5688 16.1493C20.0738 16.9475 19.5729 17.7277 18.8035 18.3279C18.058 18.9161 17.3722 19.5823 16.6506 20.2124C16.3822 20.4465 16.1079 20.6866 15.8037 20.8666C15.5115 21.0407 15.2312 21.2267 14.8197 21.1787C14.5095 21.1427 14.1636 21.3708 13.8177 21.4848C13.937 21.6649 14.0205 21.7849 14.1278 21.953C13.7521 22.3551 13.4003 22.7752 13.0007 23.1473C12.774 23.3633 12.4937 23.5314 12.2194 23.6934C11.9331 23.8615 11.629 23.8375 11.6051 23.6454C11.5813 23.4714 11.6111 23.2313 11.7125 23.1113C11.9451 22.8472 12.2373 22.6371 12.5116 22.4151C12.6011 22.3431 12.7204 22.295 12.8218 22.235C12.8098 22.301 12.7979 22.3611 12.786 22.4271C12.8277 22.3671 12.8397 22.3071 12.8516 22.241Z" fill="black"/>
<path d="M25 4.75803C24.5646 4.49396 24.1233 4.22988 23.6879 3.96581C23.5866 3.90579 23.4732 3.81576 23.3659 3.82776C22.7457 3.86978 22.2149 3.46766 21.6423 3.44965C20.6344 3.41964 19.7101 3.05354 18.732 2.9215C17.9805 2.81947 17.241 2.77146 16.4896 2.75945C15.8276 2.74745 15.1715 2.80147 14.5215 2.46537C14.098 2.24331 13.5255 2.32133 13.0186 2.2433C12.6309 2.18329 12.2433 2.09926 11.8854 2.03324C11.5932 1.38506 11.3249 0.784885 11.0684 0.202717C11.4024 -0.103371 11.7125 0.016662 12.0226 0.0586741C13.0723 0.208717 14.1279 0.35276 15.1775 0.502804C15.6069 0.562821 16.0363 0.646849 16.4597 0.724872C17.0442 0.832903 17.6286 0.928931 18.2071 1.05497C18.8274 1.18701 19.4417 1.30104 20.0082 1.63113C20.378 1.84719 20.8134 1.96122 21.2308 2.09326C22.3401 2.44136 23.3361 3.02353 24.3141 3.6297C24.5467 3.77374 24.7734 3.9598 24.9284 4.17587C25.0239 4.3079 24.9762 4.54197 24.9941 4.73402L25 4.75803Z" fill="black"/>
<path d="M12.8516 22.2411C12.8397 22.3011 12.8218 22.3611 12.8098 22.4271C12.8218 22.3611 12.8337 22.3011 12.8456 22.2351L12.8516 22.2411Z" fill="white"/>
</svg>
