<svg width="36" height="36" viewBox="0 0 48 48" fill="none" xmlns="http://www.w3.org/2000/svg">
<path fill-rule="evenodd" clip-rule="evenodd" d="M31.5255 18H15.2743C14.3772 18 13.6499 18.7459 13.6499 19.666V33C13.6499 35.7614 15.8325 38 18.5249 38H28.2749C29.5679 38 30.8079 37.4732 31.7221 36.5356C32.6363 35.5978 33.1499 34.326 33.1499 33V19.666C33.1499 18.7459 32.4227 18 31.5255 18Z" stroke="black" stroke-width="3" stroke-linecap="round" stroke-linejoin="round"/>
<path fill-rule="evenodd" clip-rule="evenodd" d="M29.25 14L27.8382 11.106C27.5082 10.4285 26.8334 10.0004 26.095 10H20.7052C19.9668 10.0004 19.2919 10.4285 18.9618 11.106L17.55 14H29.25Z" stroke="black" stroke-width="3" stroke-linecap="round" stroke-linejoin="round"/>
<path d="M21.6493 24.666C21.6493 23.8376 20.9777 23.166 20.1493 23.166C19.3208 23.166 18.6493 23.8376 18.6493 24.666H21.6493ZM18.6493 31.332C18.6493 32.1604 19.3208 32.832 20.1493 32.832C20.9777 32.832 21.6493 32.1604 21.6493 31.332H18.6493ZM28.1505 24.666C28.1505 23.8376 27.4791 23.166 26.6505 23.166C25.8221 23.166 25.1505 23.8376 25.1505 24.666H28.1505ZM25.1505 31.332C25.1505 32.1604 25.8221 32.832 26.6505 32.832C27.4791 32.832 28.1505 32.1604 28.1505 31.332H25.1505ZM29.2499 12.5C28.4215 12.5 27.7499 13.1716 27.7499 14C27.7499 14.8284 28.4215 15.5 29.2499 15.5V12.5ZM33.1499 15.5C33.9783 15.5 34.6499 14.8284 34.6499 14C34.6499 13.1716 33.9783 12.5 33.1499 12.5V15.5ZM17.5499 15.5C18.3783 15.5 19.0499 14.8284 19.0499 14C19.0499 13.1716 18.3783 12.5 17.5499 12.5V15.5ZM13.6499 12.5C12.8215 12.5 12.1499 13.1716 12.1499 14C12.1499 14.8284 12.8215 15.5 13.6499 15.5V12.5ZM18.6493 24.666V31.332H21.6493V24.666H18.6493ZM25.1505 24.666V31.332H28.1505V24.666H25.1505ZM29.2499 15.5H33.1499V12.5H29.2499V15.5ZM17.5499 12.5H13.6499V15.5H17.5499V12.5Z" fill="black"/>
</svg>
